<?xml version="1.0" encoding="utf-8"?>
<!-- Generator: Adobe Illustrator 22.1.0, SVG Export Plug-In . SVG Version: 6.00 Build 0)  -->
<svg version="1.1" id="Layer_1" xmlns="http://www.w3.org/2000/svg" xmlns:xlink="http://www.w3.org/1999/xlink" x="0px" y="0px"
	 viewBox="0 0 218.3 38.9" style="enable-background:new 0 0 218.3 38.9;" xml:space="preserve">
<style type="text/css">
	.st0{fill:#076D4D;}
	.st1{fill:#E9DB00;}
</style>
<title>logo</title>
<path class="st0" d="M0,11L10.4,0.6v37.9H0V11z M8.6,15.1h17.6l0.6,9.2H8.1L8.6,15.1z M23.9,0.6h10.9v37.9h-11L23.9,0.6z"/>
<path class="st0" d="M76.3,19.4c0,6-1.9,10.7-5.8,14.2c-7.8,6.9-19.5,7-27.4,0.1c-3.8-3.4-5.7-8.2-5.7-14.3c0-6.1,1.9-10.9,5.8-14.3
	c7.9-6.8,19.5-6.8,27.4,0C74.3,8.5,76.3,13.3,76.3,19.4z M47.1,19.4c-0.1,2.6,0.9,5.2,2.8,7c3.8,3.4,9.5,3.4,13.4,0.1
	c3.8-3.9,3.7-10.1-0.1-14c-1.8-1.7-4.2-2.6-6.7-2.5c-2.5-0.1-4.9,0.8-6.7,2.4C48.1,14,47.1,16.4,47.1,19.4z"/>
<path class="st0" d="M91.9,15.1c3.3-0.1,6.5,1,8.9,3.3c2.3,2.1,3.5,5.1,3.4,8.2c0,3.1-1.2,6.1-3.4,8.3c-2.1,2.3-5.1,3.6-8.2,3.6
	H77.8v-9.4l13.8,0.1c0.6,0,1.2-0.3,1.6-0.7c0.4-0.5,0.7-1.1,0.6-1.8c0-1.4-0.9-2-2.7-2c-3.4,0.1-6.8-1.2-9.2-3.7
	c-2.4-2.3-3.7-5.5-3.6-8.9c0-3.1,1.4-6,3.7-8c2.3-2.2,5.3-3.4,8.4-3.4h23.3l-9.8,9.7H90c-0.6,0-1.1,0.2-1.5,0.5
	c-0.5,0.3-0.7,0.9-0.7,1.4c-0.1,0.9,0.3,1.7,1.1,2.2C89.8,14.9,90.8,15.1,91.9,15.1z"/>
<path class="st0" d="M107.3,10.4l9.7-9.8h23.1l-9.7,9.8H107.3z M116.7,10.4l10.4-9.8v37.9h-10.4V10.4z"/>
<path class="st0" d="M133.8,11l10.4-10.4v37.9h-10.4V11z"/>
<polygon class="st1" points="186,0.6 172.7,0.6 157.8,15.6 157.8,0.6 147.4,11 147.4,38.5 157.8,38.5 157.8,29.5 162.7,24.5 
	176.8,38.5 176.8,25.3 169.1,17.7 "/>
<path class="st1" d="M212.6,5.1c-7.8-6.8-19.5-6.8-27.4,0c-3.9,3.4-5.8,8.2-5.8,14.3c0,6.1,1.9,10.9,5.7,14.4
	c7.8,6.9,19.6,6.8,27.4-0.1c3.9-3.5,5.8-8.2,5.8-14.2C218.3,13.3,216.4,8.5,212.6,5.1z M205.4,26.4c-3.9,3.3-9.6,3.3-13.4-0.1
	c-3.8-3.9-3.8-10.1-0.1-14c1.9-1.6,4.3-2.5,6.7-2.4c2.5,0,4.8,0.9,6.7,2.5C209.2,16.4,209.2,22.6,205.4,26.4L205.4,26.4z"/>
</svg>
